<?xml version="1.0" encoding="UTF-8" standalone="no"?>
<svg
   xmlns:dc="http://purl.org/dc/elements/1.1/"
   xmlns:cc="http://creativecommons.org/ns#"
   xmlns:rdf="http://www.w3.org/1999/02/22-rdf-syntax-ns#"
   xmlns:svg="http://www.w3.org/2000/svg"
   xmlns="http://www.w3.org/2000/svg"
   xmlns:sodipodi="http://sodipodi.sourceforge.net/DTD/sodipodi-0.dtd"
   xmlns:inkscape="http://www.inkscape.org/namespaces/inkscape"
   version="1.1"
   x="0px"
   y="0px"
   viewBox="0 0 64 80"
   style="enable-background:new 0 0 64 64;"
   xml:space="preserve"
   id="svg3452"
   inkscape:version="0.91 r13725"
   sodipodi:docname="Bugreporting-top.svg"><metadata
     id="metadata3468"><rdf:RDF><cc:Work
         rdf:about=""><dc:format>image/svg+xml</dc:format><dc:type
           rdf:resource="http://purl.org/dc/dcmitype/StillImage" /><dc:title></dc:title></cc:Work></rdf:RDF></metadata><defs
     id="defs3466" /><sodipodi:namedview
     pagecolor="#ffffff"
     bordercolor="#666666"
     borderopacity="1"
     objecttolerance="10"
     gridtolerance="10"
     guidetolerance="10"
     inkscape:pageopacity="0"
     inkscape:pageshadow="2"
     inkscape:window-width="1093"
     inkscape:window-height="760"
     id="namedview3464"
     showgrid="false"
     inkscape:zoom="6.8625"
     inkscape:cx="29.06585"
     inkscape:cy="36.180236"
     inkscape:window-x="0"
     inkscape:window-y="0"
     inkscape:window-maximized="0"
     inkscape:current-layer="svg3452" /><g
     id="g3454"
     transform="translate(0.06817003,-8.5)"><g
       id="g3456"><path
         d="m 27.7,37.7 0,-1.9 c 1.6,-1.3 2.9,-3.3 3.6,-5.5 l 2.7,0 c 1.4,0 2.5,-1.1 2.5,-2.5 l 0,-3.5 c 0,-1.2 -0.8,-2.2 -2,-2.5 -1.4,-5.9 -6.3,-10.2 -12.1,-10.2 -5.8,0 -10.7,4.3 -12.1,10.2 -1.1,0.2 -2,1.2 -2,2.5 l 0,3.5 c 0,1.4 1.1,2.4 2.4,2.5 l 0,0.3 c 0,1.3 1.1,2.4 2.4,2.4 l 7,0 c 0.3,0.3 0.6,0.4 1,0.4 l 1.9,0 c 0.8,0 1.4,-0.6 1.4,-1.4 0,-0.8 -0.6,-1.4 -1.4,-1.4 l -1.9,0 c -0.4,0 -0.8,0.2 -1,0.4 l -4.2,0 c -0.6,-1.4 -1,-2.9 -1,-4.5 0,-5.1 3.3,-9.2 7.4,-9.2 4.1,0 7.4,4.1 7.4,9.2 0,5.1 -3.3,9.2 -7.4,9.2 -1.6,0 -3,-0.6 -4.3,-1.7 -0.4,-0.4 -1,-0.3 -1.4,0.1 -0.4,0.4 -0.3,1 0.1,1.4 0.1,0.1 0.2,0.2 0.3,0.3 l 0,1.8 C 7.3,39.3 6.4,46.8 6.4,55.6 l 0,1 31.9,0 0,-1 C 38.3,47.9 37.5,39.7 27.7,37.7 Z M 13.1,31.1 c -0.2,0 -0.4,-0.2 -0.4,-0.4 l 0,-0.3 0.8,0 c 0.1,0.3 0.1,0.5 0.2,0.8 l -0.6,0 z m 9.3,-15.7 c -3.7,0 -7,2.6 -8.5,6.4 l -1.6,0 c 1.3,-4.7 5.3,-8.1 10.1,-8.1 4.8,0 8.7,3.4 10.1,8.1 l -1.6,0 C 29.4,18 26.1,15.4 22.4,15.4 Z m 0,22.4 c 1.2,0 2.3,-0.3 3.3,-0.7 l 0,2.3 c 0,1.8 -1.5,3.3 -3.3,3.3 -1.8,0 -3.3,-1.5 -3.3,-3.3 l 0,-2.2 c 1,0.3 2.2,0.6 3.3,0.6 z M 8.5,54.6 c 0.1,-7.8 1,-13.4 8.7,-14.9 0.2,2.7 2.5,4.9 5.3,4.9 2.8,0 5,-2.1 5.2,-4.8 7,1.5 8.6,6.6 8.7,14.8 l -27.9,0 z"
         id="path3458"
         inkscape:connector-curvature="0" /><path
         d="m 57.4,18.9 c -0.9,-2.3 -2.6,-4.1 -4.8,-5.1 1.2,-0.7 2.1,-1.8 2.7,-3.1 0.2,-0.5 0,-1.1 -0.5,-1.3 -0.5,-0.2 -1.1,0 -1.3,0.5 -0.7,1.5 -2,2.6 -3.5,2.9 0.5,-0.4 0.8,-1.1 0.8,-1.9 0,-1.3 -0.9,-2.4 -2.1,-2.4 -1.2,0 -2.1,1.1 -2.1,2.4 0,0.7 0.3,1.4 0.8,1.8 -1.5,-0.4 -2.7,-1.6 -3.3,-3 -0.2,-0.5 -0.8,-0.8 -1.3,-0.6 -0.5,0.2 -0.8,0.8 -0.6,1.3 0.5,1.4 1.5,2.6 2.7,3.4 -2.1,0.9 -3.8,2.6 -4.8,4.8 -0.2,0.5 0,1.1 0.5,1.3 0.5,0.2 1.1,0 1.3,-0.5 0.7,-1.5 1.8,-2.7 3.2,-3.5 -0.6,0.8 -0.9,1.8 -0.9,2.9 0,2.7 2,4.8 4.5,4.8 2.5,0 4.5,-2.2 4.5,-4.8 0,-1.1 -0.3,-2.1 -0.9,-2.9 1.5,0.8 2.7,2.1 3.3,3.8 0.2,0.4 0.5,0.6 0.9,0.6 0.1,0 0.2,0 0.4,-0.1 0.4,-0.2 0.7,-0.8 0.5,-1.3 z"
         id="path3460"
         inkscape:connector-curvature="0" /><path
         d="m 47.4,25.4 c -0.6,0 -1,0.4 -1,1 0,3.8 -3.1,6.9 -6.9,6.9 l -5.4,0 c -0.6,0 -1,0.4 -1,1 0,0.6 0.4,1 1,1 l 5.4,0 c 4.9,0 8.9,-4 8.9,-8.9 0,-0.5 -0.4,-1 -1,-1 z"
         id="path3462"
         inkscape:connector-curvature="0" /></g></g></svg>